PathFileType	3	(X/Y/Z)	F:\ViconData\AntennenMessung\Messung1\Session1\ID21.trc
DataRate	CameraRate	NumFrames	NumMarkers	Units	OrigDataRate	OrigDataStartFrame	OrigNumFrames
120.0	120.0	4	70	mm	120.0	282	1126	
Frame#	Time	Ashort			Along			Atop			A4			Bshort			Blong			Btop			B4			Cshort			Clong			Ctop			C4			Dshort			Dlong			Dtop			D4			Eshort			Elong			Etop			E4			Fshort			Flong			Ftop			F4			Gshort			Glong			Gtop			G4			Hshort			Hlong			Htop			H4			I1			I2			I3			I4			I5			WandAshort			WandAlong			WandAtop			WandA4			WandA15			WandBshort			WandB4			WandB5			WandBtop			WandBlong			WandCshort			WandClong			WandCtop			WandC4			WandC5			Acenter			Aantenna			Bcenter			Bantenna			Ccenter			Cantenna			Dcenter			Dantenna			Ecenter			Eantenna			Fcenter			Fantenna			Gcenter			Gantenna			Hcenter			Hantenna			Icenter			Iantenna			
		X1	Y1	Z1	X2	Y2	Z2	X3	Y3	Z3	X4	Y4	Z4	X5	Y5	Z5	X6	Y6	Z6	X7	Y7	Z7	X8	Y8	Z8	X9	Y9	Z9	X10	Y10	Z10	X11	Y11	Z11	X12	Y12	Z12	X13	Y13	Z13	X14	Y14	Z14	X15	Y15	Z15	X16	Y16	Z16	X17	Y17	Z17	X18	Y18	Z18	X19	Y19	Z19	X20	Y20	Z20	X21	Y21	Z21	X22	Y22	Z22	X23	Y23	Z23	X24	Y24	Z24	X25	Y25	Z25	X26	Y26	Z26	X27	Y27	Z27	X28	Y28	Z28	X29	Y29	Z29	X30	Y30	Z30	X31	Y31	Z31	X32	Y32	Z32	X33	Y33	Z33	X34	Y34	Z34	X35	Y35	Z35	X36	Y36	Z36	X37	Y37	Z37	X38	Y38	Z38	X39	Y39	Z39	X40	Y40	Z40	X41	Y41	Z41	X42	Y42	Z42	X43	Y43	Z43	X44	Y44	Z44	X45	Y45	Z45	X46	Y46	Z46	X47	Y47	Z47	X48	Y48	Z48	X49	Y49	Z49	X50	Y50	Z50	X51	Y51	Z51	X52	Y52	Z52	X53	Y53	Z53	X54	Y54	Z54	X55	Y55	Z55	X56	Y56	Z56	X57	Y57	Z57	X58	Y58	Z58	X59	Y59	Z59	X60	Y60	Z60	X61	Y61	Z61	X62	Y62	Z62	X63	Y63	Z63	X64	Y64	Z64	X65	Y65	Z65	X66	Y66	Z66	X67	Y67	Z67	X68	Y68	Z68	X69	Y69	Z69	X70	Y70	Z70	
282	2.3416667	-1038.2347	214.52592	-1644.1562	-1109.3679	204.26251	-1599.3932	-1063.8408	173.16982	-1625.6713	-1054.1798	262.30563	-1634.9728	-1352.7408	235.21613	1003.4377	-1281.338	227.18169	1052.4333	-1322.7107	194.00435	1020.8997	-1284.7819	287.9389	1052.8204	813.87921	187.91273	1209.4551	892.401	178.62453	1179.1382	844.59369	145.39835	1198.3091	860.98999	292.59143	1168.7556	1115.7386	209.58801	-1401.5438	1055.9968	194.07716	-1460.4629	1094.7555	162.04407	-1423.9991	1069.8619	238.66148	-1425.7466	-1204.5614	1685.9651	-1563.1779	-1129.1268	1688.3477	-1606.0621	-1173.1959	1724.4567	-1581.9244	-1134.0632	1581.0051	-1603.8973	-1239.7509	1699.2161	1119.5505	-1309.0405	1698.2448	1071.7618	-1268.9263	1737.3906	1094.2587	-1245.5034	1592.7904	1110.7462	988.84924	1664.2424	1162.219	955.79138	1702.2858	1181.0405	922.86273	1662.0159	1215.0782	939.789	1659.4185	1159.8672	998.9502	1668.4902	-1579.531	1058.8175	1670.149	-1518.7191	1024.9247	1708.0471	-1551.1936	1059.2119	1672.1575	-1585.5229	-209.34332	1636.9569	-265.42825	-216.37569	1638.4126	-181.31583	-213.14783	1674.4259	-228.38429	-244.33017	1635.2345	-231.19678	-164.04674	1640.2153	-224.9351																																														-1068.7294	210.12598	-1624.9663	-1073.843	248.78227	-1624.229	-1321.2955	231.6778	1025.015	-1319.8402	270.42017	1029.2473	848.31146	183.83977	1196.1609	852.06	222.59874	1193.9951	1088.5466	202.52812	-1428.3613	1082.6677	240.86061	-1432.4916	-1171.9083	1686.9963	-1581.7408	-1170.5687	1648.0198	-1581.5499	-1270.9756	1698.7783	1098.0149	-1273.0331	1660.0156	1101.786	953.53906	1704.8774	1182.3229	972.81775	1731.8141	1161.7377	1026.4302	1669.2517	-1551.6174	1027.9423	1630.2833	-1552.0432	-212.49825	1637.61	-227.69287	-211.81036	1598.6229	-226.96069
283	2.35	-1038.2241	214.59013	-1644.2013	-1109.3685	204.20056	-1599.3519	-1063.7429	173.20595	-1625.7115	-1054.2354	262.3941	-1635.0028	-1352.8912	235.03766	1003.559	-1281.3585	227.17245	1052.4343	-1322.6659	194.09703	1020.827	-1284.5974	287.94128	1052.6857	813.95319	187.81549	1209.438	892.41315	178.66919	1179.1296	844.54309	145.32832	1198.3409	860.94122	292.62653	1168.5376	1115.7367	209.58383	-1401.5532	1056.0309	194.11629	-1460.3871	1094.6698	161.82523	-1423.9609	1069.8694	238.64478	-1425.7417	-1204.5685	1685.976	-1563.1747	-1129.1334	1688.371	-1606.0536	-1173.2091	1724.4612	-1581.9175	-1134.0525	1581.0208	-1603.9265	-1239.6984	1699.1239	1119.5034	-1309.1022	1698.3419	1071.8148	-1270.4788	1736.4222	1096.9655	-1244.8379	1594.0758	1106.0358	988.86267	1664.2456	1162.2239	955.93805	1702.3768	1181.1294	922.90625	1662.0077	1215.1174	939.74133	1659.424	1159.8927	998.94574	1668.5078	-1579.5591	1058.7012	1669.9725	-1518.7261	1024.9464	1708.0706	-1551.1956	1059.2203	1672.1608	-1585.5299	-209.35901	1636.9724	-265.41382	-216.38763	1638.4445	-181.30634	-213.15622	1674.4209	-228.39017	-244.34348	1635.2515	-231.20506	-164.53645	1640.0894	-225.29109																																														-1068.6866	210.14153	-1624.9976	-1073.8597	248.7897	-1624.2506	-1321.4324	231.57867	1025.0533	-1320.1576	270.31238	1029.421	848.20587	183.82253	1196.2063	851.89453	222.58815	1194.0569	1088.496	202.52679	-1428.396	1082.6808	240.86388	-1432.5736	-1171.9163	1687.0126	-1581.7349	-1170.5707	1648.0363	-1581.5449	-1270.8385	1698.7731	1098.1064	-1271.2112	1659.7926	1099.2877	953.76837	1704.8894	1182.3751	973.13293	1731.7957	1161.8308	1026.3613	1669.1797	-1551.6489	1027.7792	1630.2081	-1552.1034	-212.51128	1637.6324	-227.6924	-211.82777	1598.6455	-226.95294
284	2.3583333	-1038.2327	214.55528	-1644.1454	-1109.369	204.2988	-1599.3585	-1063.7617	173.19711	-1625.7347	-1054.1566	262.32309	-1634.9421	-1352.76	235.24031	1003.4891	-1281.2893	227.13368	1052.4045	-1322.6898	194.01729	1020.8883	-1284.5642	287.95782	1052.627	813.94818	187.769	1209.536	892.13495	178.5773	1179.255	844.59973	145.29764	1198.3998	860.99072	292.62247	1168.4795	1115.7434	209.60049	-1401.558	1056.1294	194.13368	-1460.4141	1094.7246	161.97371	-1423.9911	1069.8562	238.65453	-1425.7656	-1204.5691	1685.954	-1563.1738	-1129.1367	1688.3403	-1606.0592	-1173.2036	1724.4565	-1581.9139	-1134.0577	1581.012	-1603.9069	-1240.556	1698.8043	1118.3878	-1308.3513	1699.2036	1068.3303	-1268.9752	1737.3806	1094.2976	-1245.6851	1592.9717	1110.7688	988.88721	1664.2329	1162.2352	956.01398	1702.3932	1181.1219	922.8587	1662.0466	1215.1188	939.77545	1659.4304	1159.8641	998.94104	1668.5087	-1579.5624	1058.7067	1669.9796	-1518.724	1024.9408	1708.0635	-1551.1921	1059.209	1672.1527	-1585.5292	-209.35127	1636.9535	-265.43417	-216.36703	1638.4287	-181.31998	-213.15932	1674.4218	-228.39966	-244.33771	1635.2411	-231.20784	-164.51024	1640.1038	-225.29793																																														-1068.6335	210.17206	-1625.0051	-1073.7272	248.83047	-1624.2426	-1321.2642	231.66786	1025.0452	-1319.7975	270.40488	1029.322	848.28125	183.73276	1196.239	851.9942	222.49442	1194.0599	1088.5533	202.54607	-1428.4022	1082.7222	240.88176	-1432.5703	-1171.9176	1686.9868	-1581.7369	-1170.58	1648.0101	-1581.553	-1270.606	1698.9813	1096.2	-1272.2587	1660.064	1098.1279	953.82831	1704.9302	1182.3777	973.24341	1731.8142	1161.8521	1026.3624	1669.1835	-1551.6486	1027.7875	1630.2122	-1552.1062	-212.49866	1637.6152	-227.69902	-211.79886	1598.6285	-226.95691
285	2.3666667	-1038.2443	214.56252	-1644.1831	-1109.3647	204.23804	-1599.332	-1063.7406	173.20398	-1625.722	-1054.2002	262.36459	-1634.9906	-1352.8759	235.09146	1003.5585	-1281.4025	227.16072	1052.4022	-1322.6558	193.94739	1020.8982	-1284.6349	287.95081	1052.6786	814.06726	187.59862	1209.5454	892.7417	179.14059	1178.696	844.3222	145.57318	1198.3159	860.92694	292.56241	1168.6125	1115.7241	209.55588	-1401.5353	1056.127	194.17126	-1460.4594	1094.6838	161.85837	-1423.9709	1069.849	238.6631	-1425.772	-1204.5656	1685.9585	-1563.1799	-1129.1335	1688.3109	-1606.0546	-1173.2039	1724.4672	-1581.9229	-1134.0476	1581.0077	-1603.9347	-1239.7306	1699.1888	1119.5366	-1308.4882	1699.3048	1069.3367	-1268.9235	1737.399	1094.1852	-1244.8741	1593.9419	1106.0358	988.87976	1664.2299	1162.2336	955.75415	1702.2428	1181.0022	922.96722	1661.9613	1215.1372	939.77228	1659.4148	1159.8453	998.95007	1668.491	-1579.5342	1058.8226	1670.1525	-1518.7115	1024.9373	1708.0627	-1551.2032	1059.2136	1672.1566	-1585.5193	-209.34431	1636.9583	-265.42358	-216.37039	1638.4308	-181.3037	-213.14618	1674.411	-228.39359	-244.3504	1635.2417	-231.19878	-164.49803	1640.0933	-225.30583																																														-1068.6525	210.14818	-1625.0065	-1073.7916	248.80084	-1624.2579	-1321.3513	231.59346	1025.1018	-1320.009	270.32959	1029.4272	847.68579	183.98439	1196.3629	851.08362	222.78596	1194.3901	1088.5565	202.54274	-1428.3959	1082.7816	240.88669	-1432.5664	-1171.9259	1686.9763	-1581.7318	-1170.5975	1647.9994	-1581.5332	-1270.8882	1699.2413	1096.7883	-1272.8893	1660.3829	1099.4392	953.51648	1704.8107	1182.2699	972.71899	1731.7446	1161.6102	1026.4327	1669.2535	-1551.6152	1027.9346	1630.2847	-1552.0291	-212.49554	1637.6187	-227.69513	-211.80614	1598.6317	-226.95502
